<svg xmlns="http://www.w3.org/2000/svg" xmlns:xlink="http://www.w3.org/1999/xlink" width="309" zoomAndPan="magnify" viewBox="0 0 231.75 52.499999" height="70" preserveAspectRatio="xMidYMid meet" version="1.0"><defs><g/><clipPath id="e7a07317ee"><path d="M 71 3 L 144 3 L 144 52.003906 L 71 52.003906 Z M 71 3 " clip-rule="nonzero"/></clipPath><clipPath id="11fe5811e2"><rect x="0" width="73" y="0" height="50"/></clipPath><clipPath id="afbc009aa9"><path d="M 41.632812 9.140625 L 64.664062 9.140625 L 64.664062 39.601562 L 41.632812 39.601562 Z M 41.632812 9.140625 " clip-rule="nonzero"/></clipPath><clipPath id="7915d74461"><path d="M 45 17 L 62 17 L 62 39.601562 L 45 39.601562 Z M 45 17 " clip-rule="nonzero"/></clipPath><clipPath id="6fd166e298"><path d="M 48 27 L 58 27 L 58 39.601562 L 48 39.601562 Z M 48 27 " clip-rule="nonzero"/></clipPath><clipPath id="6f91890726"><path d="M 50 33 L 56 33 L 56 39.601562 L 50 39.601562 Z M 50 33 " clip-rule="nonzero"/></clipPath></defs><g clip-path="url(#e7a07317ee)"><g transform="matrix(1, 0, 0, 1, 71, 3)"><g clip-path="url(#11fe5811e2)"><g fill="#4e3182" fill-opacity="1"><g transform="translate(0.370005, 36.189711)"><g><path d="M 17.8125 -24.09375 L 17.8125 -19.390625 L 8 -19.390625 L 8 -14.3125 L 15.34375 -14.3125 L 15.34375 -9.75 L 8 -9.75 L 8 0 L 2.125 0 L 2.125 -24.09375 Z M 17.8125 -24.09375 "/></g></g></g><g fill="#4e3182" fill-opacity="1"><g transform="translate(19.14659, 36.189711)"><g><path d="M 8 -24.09375 L 8 0 L 2.125 0 L 2.125 -24.09375 Z M 8 -24.09375 "/></g></g></g><g fill="#4e3182" fill-opacity="1"><g transform="translate(29.272899, 36.189711)"><g><path d="M 14.421875 0 L 9.40625 -9.09375 L 8 -9.09375 L 8 0 L 2.125 0 L 2.125 -24.09375 L 11.984375 -24.09375 C 13.878906 -24.09375 15.492188 -23.757812 16.828125 -23.09375 C 18.171875 -22.4375 19.175781 -21.53125 19.84375 -20.375 C 20.507812 -19.21875 20.84375 -17.929688 20.84375 -16.515625 C 20.84375 -14.910156 20.390625 -13.476562 19.484375 -12.21875 C 18.578125 -10.957031 17.242188 -10.066406 15.484375 -9.546875 L 21.046875 0 Z M 8 -13.25 L 11.640625 -13.25 C 12.710938 -13.25 13.515625 -13.507812 14.046875 -14.03125 C 14.585938 -14.5625 14.859375 -15.304688 14.859375 -16.265625 C 14.859375 -17.179688 14.585938 -17.898438 14.046875 -18.421875 C 13.515625 -18.953125 12.710938 -19.21875 11.640625 -19.21875 L 8 -19.21875 Z M 8 -13.25 "/></g></g></g><g fill="#4e3182" fill-opacity="1"><g transform="translate(51.653799, 36.189711)"><g><path d="M 8 -19.390625 L 8 -14.515625 L 15.859375 -14.515625 L 15.859375 -9.984375 L 8 -9.984375 L 8 -4.703125 L 16.890625 -4.703125 L 16.890625 0 L 2.125 0 L 2.125 -24.09375 L 16.890625 -24.09375 L 16.890625 -19.390625 Z M 8 -19.390625 "/></g></g></g></g></g></g><g clip-path="url(#afbc009aa9)"><path fill="#5e17eb" d="M 59.902344 37.335938 C 54.539062 41.300781 47.195312 40.148438 43.691406 35.4375 C 40.757812 31.488281 40.933594 25.617188 44.378906 21.386719 C 44.199219 21.816406 43.789062 22.941406 44.070312 24.359375 C 44.398438 26.03125 45.472656 27.003906 45.804688 27.28125 C 45.652344 26.386719 45.609375 25.488281 45.6875 24.582031 C 45.761719 23.679688 45.949219 22.796875 46.25 21.941406 C 46.550781 21.085938 46.953125 20.28125 47.457031 19.527344 C 47.964844 18.773438 48.558594 18.09375 49.238281 17.492188 C 49.609375 17.164062 49.945312 16.804688 50.246094 16.414062 C 51.039062 15.378906 51.542969 14.214844 51.765625 12.929688 C 51.984375 11.644531 51.890625 10.382812 51.488281 9.144531 C 52.179688 9.65625 54.050781 11.1875 54.957031 13.945312 C 55.410156 15.332031 55.546875 16.75 55.359375 18.199219 C 55.171875 19.683594 55.488281 21.199219 56.300781 22.453125 C 57.011719 23.5625 57.875 24.148438 58.617188 24.070312 C 59.492188 23.980469 60.109375 22.96875 60.1875 22.835938 C 61.074219 21.339844 60.160156 19.703125 60.117188 19.628906 C 60.925781 20.261719 63.582031 22.515625 64.277344 26.355469 C 65.003906 30.375 63.296875 34.578125 59.902344 37.335938 Z M 59.902344 37.335938 " fill-opacity="1" fill-rule="nonzero"/></g><g clip-path="url(#7915d74461)"><path fill="#8c52ff" d="M 53.585938 39.714844 C 50.242188 39.992188 47.101562 38.171875 45.785156 35.242188 C 44.300781 31.949219 45.410156 27.902344 48.503906 25.695312 C 48.238281 26.882812 48.660156 27.972656 49.464844 28.398438 C 49.511719 28.425781 50.210938 28.785156 50.792969 28.496094 C 51.621094 28.089844 51.957031 26.476562 51.292969 24.558594 C 50.980469 23.453125 50.910156 22.335938 51.078125 21.199219 C 51.375 19.222656 52.351562 17.882812 52.832031 17.300781 C 52.734375 18.699219 52.976562 20.039062 53.558594 21.3125 C 54.535156 23.457031 56.15625 24.5625 56.808594 24.960938 C 60.792969 27.492188 62.140625 32.28125 60.394531 35.675781 C 58.492188 39.378906 53.789062 39.703125 53.585938 39.714844 Z M 53.585938 39.714844 " fill-opacity="1" fill-rule="nonzero"/></g><g clip-path="url(#6fd166e298)"><path fill="#4e3182" d="M 53.75 39.675781 C 52.71875 39.824219 51.664062 39.648438 50.75 39.152344 C 50.183594 38.84375 49.582031 38.367188 49.203125 37.632812 C 48.289062 35.867188 48.996094 33.300781 51.152344 31.816406 C 52.390625 30.875 52.738281 30.058594 52.816406 29.476562 C 52.816406 29.476562 52.851562 29.238281 52.90625 27.964844 C 52.910156 27.964844 55.550781 29.121094 55.824219 30.96875 C 56.046875 32.46875 54.6875 34.257812 54.671875 34.285156 C 54.878906 34.28125 56.117188 34.246094 56.941406 33.246094 C 57.363281 32.742188 57.496094 32.203125 57.546875 31.90625 C 58.398438 34.925781 57.476562 37.839844 55.464844 39.074219 C 54.890625 39.425781 54.296875 39.597656 53.75 39.675781 Z M 53.75 39.675781 " fill-opacity="1" fill-rule="nonzero"/></g><g clip-path="url(#6f91890726)"><path fill="#ffffff" d="M 52.425781 39.667969 C 52.628906 39.722656 53.351562 39.90625 54.121094 39.539062 C 54.285156 39.457031 54.992188 39.085938 55.253906 38.34375 C 55.582031 37.40625 55.160156 36.308594 54.21875 35.789062 C 53.996094 35.6875 53.796875 35.550781 53.621094 35.382812 C 53.441406 35.210938 53.296875 35.019531 53.183594 34.800781 C 53.074219 34.582031 53 34.351562 52.964844 34.109375 C 52.929688 33.867188 52.933594 33.625 52.980469 33.386719 C 52.804688 33.476562 50.675781 34.59375 50.527344 36.648438 C 50.5 36.949219 50.429688 37.964844 51.117188 38.8125 C 51.464844 39.234375 51.898438 39.519531 52.425781 39.667969 Z M 52.425781 39.667969 " fill-opacity="1" fill-rule="nonzero"/></g><g fill="#4e3182" fill-opacity="1"><g transform="translate(150.126537, 38.545714)"><g><path d="M 11.71875 0.203125 C 9.789062 0.203125 8.015625 -0.25 6.390625 -1.15625 C 4.765625 -2.0625 3.476562 -3.328125 2.53125 -4.953125 C 1.582031 -6.578125 1.109375 -8.40625 1.109375 -10.4375 C 1.109375 -12.46875 1.582031 -14.289062 2.53125 -15.90625 C 3.476562 -17.519531 4.765625 -18.78125 6.390625 -19.6875 C 8.015625 -20.59375 9.789062 -21.046875 11.71875 -21.046875 C 13.675781 -21.046875 15.46875 -20.59375 17.09375 -19.6875 C 18.71875 -18.78125 20 -17.519531 20.9375 -15.90625 C 21.875 -14.289062 22.34375 -12.46875 22.34375 -10.4375 C 22.34375 -8.40625 21.875 -6.578125 20.9375 -4.953125 C 20 -3.328125 18.71875 -2.0625 17.09375 -1.15625 C 15.46875 -0.25 13.675781 0.203125 11.71875 0.203125 Z M 11.71875 -2.75 C 13.09375 -2.75 14.316406 -3.0625 15.390625 -3.6875 C 16.472656 -4.320312 17.316406 -5.222656 17.921875 -6.390625 C 18.535156 -7.554688 18.84375 -8.90625 18.84375 -10.4375 C 18.84375 -11.96875 18.535156 -13.3125 17.921875 -14.46875 C 17.316406 -15.625 16.472656 -16.507812 15.390625 -17.125 C 14.316406 -17.75 13.09375 -18.0625 11.71875 -18.0625 C 10.34375 -18.0625 9.117188 -17.75 8.046875 -17.125 C 6.972656 -16.507812 6.128906 -15.625 5.515625 -14.46875 C 4.910156 -13.3125 4.609375 -11.96875 4.609375 -10.4375 C 4.609375 -8.90625 4.910156 -7.554688 5.515625 -6.390625 C 6.128906 -5.222656 6.972656 -4.320312 8.046875 -3.6875 C 9.117188 -3.0625 10.34375 -2.75 11.71875 -2.75 Z M 11.71875 -2.75 "/></g></g></g><g fill="#4e3182" fill-opacity="1"><g transform="translate(173.570296, 38.545714)"><g><path d="M 9.09375 0.203125 C 7.695312 0.203125 6.441406 -0.0351562 5.328125 -0.515625 C 4.210938 -1.003906 3.332031 -1.695312 2.6875 -2.59375 C 2.050781 -3.5 1.734375 -4.546875 1.734375 -5.734375 L 5.390625 -5.734375 C 5.460938 -4.835938 5.8125 -4.097656 6.4375 -3.515625 C 7.070312 -2.941406 7.957031 -2.65625 9.09375 -2.65625 C 10.269531 -2.65625 11.1875 -2.9375 11.84375 -3.5 C 12.5 -4.070312 12.828125 -4.8125 12.828125 -5.71875 C 12.828125 -6.414062 12.625 -6.984375 12.21875 -7.421875 C 11.8125 -7.859375 11.300781 -8.195312 10.6875 -8.4375 C 10.082031 -8.675781 9.242188 -8.9375 8.171875 -9.21875 C 6.804688 -9.570312 5.703125 -9.929688 4.859375 -10.296875 C 4.015625 -10.671875 3.289062 -11.242188 2.6875 -12.015625 C 2.09375 -12.796875 1.796875 -13.832031 1.796875 -15.125 C 1.796875 -16.320312 2.09375 -17.367188 2.6875 -18.265625 C 3.289062 -19.171875 4.128906 -19.859375 5.203125 -20.328125 C 6.273438 -20.804688 7.519531 -21.046875 8.9375 -21.046875 C 10.957031 -21.046875 12.609375 -20.539062 13.890625 -19.53125 C 15.179688 -18.53125 15.894531 -17.15625 16.03125 -15.40625 L 12.265625 -15.40625 C 12.203125 -16.15625 11.84375 -16.800781 11.1875 -17.34375 C 10.53125 -17.882812 9.660156 -18.15625 8.578125 -18.15625 C 7.609375 -18.15625 6.8125 -17.90625 6.1875 -17.40625 C 5.570312 -16.90625 5.265625 -16.1875 5.265625 -15.25 C 5.265625 -14.613281 5.457031 -14.085938 5.84375 -13.671875 C 6.238281 -13.265625 6.734375 -12.941406 7.328125 -12.703125 C 7.921875 -12.460938 8.738281 -12.207031 9.78125 -11.9375 C 11.15625 -11.550781 12.273438 -11.171875 13.140625 -10.796875 C 14.003906 -10.421875 14.738281 -9.835938 15.34375 -9.046875 C 15.957031 -8.253906 16.265625 -7.203125 16.265625 -5.890625 C 16.265625 -4.835938 15.976562 -3.84375 15.40625 -2.90625 C 14.84375 -1.96875 14.015625 -1.210938 12.921875 -0.640625 C 11.835938 -0.078125 10.5625 0.203125 9.09375 0.203125 Z M 9.09375 0.203125 "/></g></g></g></svg>